# xmcd
#
# Track frame offsets:
#        150
#        17827
#        40235
#        53048
#        69163
#        88273
#        107687
#        127513
#        143454
#        162403
#        175648
#        196285
#        217880
#        236314
#        256481
#        271670
#        287199
#        301342
#
# Disc length: 4297 seconds
#
# Revision: 0
# Processed by: cddbd v1.5.2PL0 Copyright (c) Steve Scherf et al.
# Submitted via: CDGFix 3.8c
#
DISCID=e910c712
DTITLE=Various Artist - TU180
DYEAR=1900
DGENRE=Karaoke
TTITLE0=Shania Twain - C-est La Vie
TTITLE1=Shania Twain - Forever And For Always
TTITLE2=Lee Ann Womack - He'll Be Back
TTITLE3=Chad Simmons - I Will
TTITLE4=Shania Twain - I'm Gonna Getcha Good
TTITLE5=Shania Twain - I'm Jealous
TTITLE6=Daron Norwood - In God We Trust
TTITLE7=Shania Twain - It Only Hurts When I'm Breathing
TTITLE8=Shania Twain - Juanita
TTITLE9=Tommy Cochran - Love Won't Let Me
TTITLE10=Shania Twain - Nah!
TTITLE11=Keith Urban - Raining On Sunday
TTITLE12=Montgomery Gentry - Speed
TTITLE13=Kit Izak and Pony West - Stay With Me
TTITLE14=Emmylou Harris - The Boxer
TTITLE15=Randy Travis - Three Wooden Crosses
TTITLE16=Shania Twain - Up!
TTITLE17=Shania Twain - Wanna Get To Know You-That Good!
EXTD=
EXTT0=
EXTT1=
EXTT2=
EXTT3=
EXTT4=
EXTT5=
EXTT6=
EXTT7=
EXTT8=
EXTT9=
EXTT10=
EXTT11=
EXTT12=
EXTT13=
EXTT14=
EXTT15=
EXTT16=
EXTT17=
PLAYORDER=
